<?xml version="1.0" standalone="yes"?>
<svg xmlns="http://www.w3.org/2000/svg" width="108" height="60">
<path style="fill:#010202; stroke:none;" d="M0 0L0 60L108 60L108 30L107 30C106.066 41.4335 96.3858 65.8414 81.0008 57.3472C74.9353 53.9984 69.0432 40.8673 61.9961 40.8673C53.6239 40.8673 47.1141 61.5848 38.3897 57.7585C35.9773 56.7005 35.4378 53.5121 33.3627 52.0231C28.4796 48.5193 23.9063 48.143 19.7708 42.8295C15.0447 36.7571 11.1726 25.4219 2 31C12.6281 10.585 22.6821 37.513 35 34.2886C45.684 31.4919 49.8473 13.7548 63 16.1127C72.4561 17.8078 79.7309 36.4124 89.8912 32.2531C104.554 26.2505 77.1544 9.46506 90.1088 2.17901C98.8303 -2.7263 106.214 7.37467 107 15L108 15L108 0L0 0z"/>
<path style="fill:#d3b409; stroke:none;" d="M76 28C75.498 24.7486 74.4652 22.5888 71.9414 20.3295C54.1073 4.36447 48.2689 32.2647 34 33.9776C24.012 35.1767 9.06286 10.2975 2 31C16.3149 24.2594 16.6283 51.333 30.0039 50.6381C41.6985 50.0306 44.0645 27.2858 52 21L51 24C63.3514 24.6762 68.4171 40.7276 74 50L76 50C78.2852 42.8532 79.7725 36.445 78 29L88 39L85 38C106.768 62.9227 119.965 -11.0961 90.1088 1.74228C79.5738 6.2723 91.7646 17.44 93.3318 23C94.5204 27.2168 91.9501 32.6867 86.9961 32.4684C82.9638 32.2906 80.0465 28.5141 76 28z"/>
<path style="fill:#74b805; stroke:none;" d="M107 17L108 18L107 17z"/>
<path style="fill:#bfcdaf; stroke:none;" d="M46 30L52 25L52 21L46 30z"/>
<path style="fill:#74b805; stroke:none;" d="M107 21C106.458 33.4271 98.154 48.6001 85 38L88 39C87.1222 33.8934 82.0939 31.6717 78 29L76 50L74 50L71 46C73.506 50.3403 77.1749 56.3145 82.0394 58.2577C99.0918 65.0695 112.354 33.7646 107 21z"/>
<path style="fill:#0471a7; stroke:none;" d="M32 50C33.6289 52.3584 35.1728 56.412 37.6373 57.929C45.6541 62.8635 54.4253 43.1092 60.9992 41.6127C65.5469 40.5774 69.7583 47.6145 73 50C70.6874 43.6451 61.2708 20.6303 52.0394 25.0471C42.5875 29.5693 40.5445 43.8501 32 50z"/>
<path style="fill:#74b805; stroke:none;" d="M50 25L51 26L50 25M58 25L59 26L58 25M59 26L60 27L59 26M76.3333 26.6667L76.6667 27.3333L76.3333 26.6667M60 27L61 28L60 27M61 28L62 29L61 28M77 28L78 29L77 28M47 29L48 30L47 29M46 30L47 31L46 30z"/>
<path style="fill:#bfcdaf; stroke:none;" d="M45 31L46 32L45 31z"/>
<path style="fill:#74b805; stroke:none;" d="M63 31L64 32L63 31z"/>
<path style="fill:#bfcdaf; stroke:none;" d="M44 32L45 33L44 32z"/>
<path style="fill:#74b805; stroke:none;" d="M44 33L45 34L44 33M64 33L65 34L64 33z"/>
<path style="fill:#bfcdaf; stroke:none;" d="M43 34L44 35L43 34M42.3333 35.6667L42.6667 36.3333L42.3333 35.6667z"/>
<path style="fill:#74b805; stroke:none;" d="M65 35L66 36L65 35z"/>
<path style="fill:#bfcdaf; stroke:none;" d="M41.3333 37.6667L41.6667 38.3333L41.3333 37.6667z"/>
<path style="fill:#74b805; stroke:none;" d="M66 37L67 38L66 37z"/>
<path style="fill:#bfcdaf; stroke:none;" d="M40 39L41 40L40 39z"/>
<path style="fill:#74b805; stroke:none;" d="M40 40L41 41L40 40M68 40L69 41L68 40M39 42L40 43L39 42M69 42L70 43L69 42M70 44L71 45L70 44z"/>
<path style="fill:#0471a7; stroke:none;" d="M73 50L74 51L73 50M74 51L78 55L74 51M26 53L30 57L26 53z"/>
</svg>
